<svg width="31" height="31" viewBox="0 0 31 31" fill="none" xmlns="http://www.w3.org/2000/svg">
<path d="M7.08702 27.1788C7.90402 27.8745 9.19321 28.3988 11.1426 28.1051C11.146 28.5703 11.1499 28.9792 11.1531 29.3171C11.157 29.7268 11.1599 30.0321 11.1599 30.2067C11.1599 30.3176 11.1214 30.3986 11.0797 30.4377C11.056 30.4598 10.9723 30.5264 10.7273 30.4868C4.78734 28.4416 0.5 22.6856 0.5 15.8928C0.5 7.37961 7.22802 0.5 15.4981 0.5C23.7721 0.5 30.5 7.3797 30.5 15.8928C30.5 22.6847 26.2152 28.4394 20.2836 30.4857C20.0297 30.5298 19.9466 30.4615 19.9254 30.4417C19.8854 30.4042 19.8459 30.323 19.8459 30.2067C19.8459 30.0362 19.848 29.7361 19.8509 29.3324C19.8523 29.1252 19.854 28.8906 19.8556 28.6321C19.8605 27.8725 19.8653 26.9117 19.8653 25.8476C19.8653 24.7726 19.6214 23.912 19.2506 23.2797C20.7405 23.0313 22.259 22.5463 23.4716 21.5054C24.9471 20.2386 25.889 18.2211 25.889 15.0638C25.889 13.318 25.3206 11.8572 24.3629 10.6907C24.5833 9.97761 24.8789 8.41054 24.1078 6.41294L24.0225 6.19198L23.7975 6.11801L23.6414 6.593C23.7975 6.11801 23.797 6.11784 23.7965 6.11768L23.7955 6.11735L23.7934 6.11666L23.7887 6.1152L23.7779 6.11194C23.774 6.1108 23.7698 6.1096 23.7652 6.10835C23.7606 6.10707 23.7556 6.10575 23.7503 6.10439C23.7292 6.09897 23.7028 6.09295 23.671 6.08704C23.6073 6.07522 23.5224 6.06394 23.4156 6.0589C23.2018 6.04879 22.9034 6.06384 22.5159 6.14756C21.7753 6.30759 20.7134 6.71749 19.2919 7.67762C18.0723 7.35226 16.7814 7.19292 15.5049 7.18524V7.18521L15.4997 7.18524C14.2187 7.191 12.9292 7.35213 11.7121 7.67582C10.2895 6.7155 9.22654 6.30557 8.48518 6.14556C8.09738 6.06185 7.79871 6.04681 7.58474 6.05692C7.47793 6.06196 7.39294 6.07323 7.32922 6.08504C7.29739 6.09094 7.27097 6.09696 7.24987 6.10236C7.23933 6.10506 7.23013 6.10761 7.22227 6.10991L7.21147 6.11315L7.20683 6.11462L7.20469 6.1153L7.20367 6.11563C7.20317 6.1158 7.20268 6.11596 7.35863 6.59102L7.20268 6.11596L6.97738 6.18992L6.89209 6.41118C6.12292 8.40659 6.41832 9.97486 6.64049 10.6895C5.68498 11.855 5.111 13.3152 5.111 15.0618C5.111 18.2115 6.0521 20.2292 7.52407 21.4996C8.73565 22.5452 10.253 23.0358 11.7409 23.2881C11.5175 23.6723 11.3412 24.14 11.2377 24.6883C10.8273 24.8483 10.2559 25.0001 9.66387 24.9458C8.98218 24.8833 8.22132 24.5453 7.61112 23.4767L7.60996 23.4746L7.59966 23.4563C7.59114 23.4413 7.57927 23.4209 7.56408 23.3958C7.53372 23.3456 7.48988 23.2765 7.43263 23.1944C7.3186 23.0309 7.14879 22.8122 6.92331 22.5886C6.47632 22.1454 5.77723 21.6516 4.83728 21.5835L4.82249 21.5824L4.80766 21.5822L4.80113 22.0822C4.80766 21.5822 4.8075 21.5822 4.80733 21.5822L4.80697 21.5822L4.80613 21.5822L4.80402 21.5822L4.79813 21.5822L4.78002 21.5822C4.76529 21.5824 4.74521 21.5827 4.72096 21.5836C4.67291 21.5853 4.60614 21.5891 4.53056 21.5977C4.39945 21.6125 4.16502 21.6488 3.96825 21.7638C3.8638 21.8249 3.7269 21.9331 3.65019 22.1142C3.56769 22.309 3.58858 22.507 3.65618 22.6714C3.77207 22.9532 4.05229 23.2073 4.40989 23.4575L4.44325 23.4808L4.47528 23.4962C4.47766 23.4975 4.4828 23.5003 4.49048 23.5047C4.5079 23.5149 4.5384 23.5335 4.57953 23.5623C4.66169 23.6199 4.78664 23.7182 4.93465 23.8704C5.22781 24.1717 5.61833 24.691 5.94465 25.5375C5.94749 25.5463 5.95112 25.5572 5.95557 25.5702C5.96591 25.6001 5.98077 25.6409 6.00082 25.6907C6.04088 25.79 6.10198 25.9259 6.18962 26.0836C6.36447 26.3981 6.64844 26.8054 7.08702 27.1788ZM4.47441 23.4957C4.47351 23.4953 4.47355 23.4953 4.47448 23.4958L4.47441 23.4957Z" fill="#202020" stroke="#202020"/>
</svg>
